<svg xmlns="http://www.w3.org/2000/svg" height="48" viewBox="0 -960 960 960" width="48"><path d="M639.225-59Q566-59 527.5-84.5T463-137q-16.722-17.4-30.555-29.7Q418.613-179 399-179q-47.559 0-106.798-16.825-59.239-16.826-111.561-54.136-52.321-37.31-87.009-98.627-34.687-61.318-34.299-150.752Q58-672 147.657-787 237.315-902 399-902q72.817 0 124.5 20.5 51.683 20.5 88.5 52.179 36.817 31.679 63.063 70.159 26.247 38.48 48.937 72.798 11 19.987 23.368 38.569 12.369 18.582 27.767 32.93Q838-552 870-505.493q32 46.506 32 146.259 0 130.09-82.272 215.162T639.225-59Zm.92-91q60.999 0 115.927-59.284Q811-268.569 811-359.157q0-68.718-20.406-100.583Q770.188-491.605 712-552q-20-19-37-43t-33-50q-43.814-64.752-90.384-115.376Q505.046-811 399.501-811q-132.318 0-190.91 94.5Q150-622 150-505q0 71 28.316 116.133 28.316 45.134 69.5 71Q289-292 330.952-281q41.953 11 68.048 11 46.248 0 76.886 23.6Q506.524-222.8 525-203q22.289 24 44.685 38.5t70.46 14.5ZM480.354-362q49.032 0 83.839-34.661Q599-431.321 599-480.354q0-49.032-35.231-83.839Q528.537-599 479.505-599t-83.269 35.231Q362-528.537 362-479.505t34.661 83.269Q431.321-362 480.354-362ZM481-480Z"/></svg>