<svg fill="#39A900" xmlns="http://www.w3.org/2000/svg" height="48" viewBox="0 -960 960 960" width="48"><path d="M199.943-55q-60.726 0-102.835-42.109Q55-139.216 55-199.942q0-47.227 27.156-85.493Q109.312-323.703 155-338v-286q-46-12-73-50.415t-27-85.642Q55-821.2 97.109-863.6 139.216-906 199.942-906q47.227 0 85.493 27.656Q323.703-850.688 338-806h286q13-45 50.604-72.5T760-906q61.167 0 103.583 42.417Q906-821.167 906-760q0 47.792-27.5 85.396T806-624v286q44.688 14.77 72.344 52.715Q906-247.34 906-199.943q0 60.726-42.4 102.835Q821.2-55 760.057-55q-47.227 0-85.642-27T624-155H338q-14.297 45.688-52.564 72.844Q247.17-55 199.943-55Zm-.443-652q24.45 0 39.975-14.738Q255-736.475 255-759.5q0-24.45-15.393-39.975Q224.215-815 199.982-815q-23.957 0-38.47 15.393Q147-784.215 147-759.982q0 23.957 14.737 38.469Q176.475-707 199.5-707Zm560 0q24.45 0 39.975-14.738Q815-736.475 815-759.5q0-24.45-15.393-39.975Q784.215-815 759.982-815q-23.957 0-38.469 15.393Q707-784.215 707-759.982q0 23.957 14.738 38.469Q736.475-707 759.5-707ZM338.367-246H624q9-34 32.5-57.5t58.5-35.13V-624q-36-9-59-32t-32-59H338.63Q327-680 303.5-656.5T246-624v285.633q33.703 11.637 57.216 35.151Q326.73-279.703 338.367-246ZM759.5-147q24.45 0 39.975-14.737Q815-176.475 815-199.5q0-24.45-15.393-39.975Q784.215-255 759.982-255q-23.957 0-38.469 15.393Q707-224.215 707-199.982q0 23.957 14.738 38.47Q736.475-147 759.5-147Zm-560 0q24.45 0 39.975-14.737Q255-176.475 255-199.5q0-24.45-15.393-39.975Q224.215-255 199.982-255q-23.957 0-38.47 15.393Q147-224.215 147-199.982q0 23.957 14.737 38.47Q176.475-147 199.5-147Zm.5-613Zm560 0Zm0 560Zm-560 0Z"/></svg>
