<?xml version="1.0" encoding="utf-8"?>
<!-- Generator: Adobe Illustrator 28.0.0, SVG Export Plug-In . SVG Version: 6.00 Build 0)  -->
<svg version="1.1" id="Capa_1" xmlns="http://www.w3.org/2000/svg" xmlns:xlink="http://www.w3.org/1999/xlink" x="0px" y="0px"
	 viewBox="0 0 24 24" style="enable-background:new 0 0 24 24;" xml:space="preserve">
<style type="text/css">
	.st0{fill:#FFFFFF;}
</style>
<path class="st0" d="M9,21c-1.1,0-2-0.4-2.8-1.2C5.4,19,5,18.1,5,17V8.8C4.4,8.6,3.9,8.2,3.6,7.7S3,6.6,3,6c0-0.8,0.3-1.5,0.9-2.1
	S5.2,3,6,3s1.5,0.3,2.1,0.9S9,5.2,9,6c0,0.7-0.2,1.2-0.6,1.7S7.6,8.6,7,8.8V17c0,0.5,0.2,1,0.6,1.4S8.4,19,9,19s1-0.2,1.4-0.6
	S11,17.5,11,17V7c0-1.1,0.4-2,1.2-2.8C13,3.4,13.9,3,15,3s2,0.4,2.8,1.2S19,5.9,19,7v8.2c0.6,0.2,1.1,0.6,1.4,1.1
	c0.4,0.5,0.6,1.1,0.6,1.7c0,0.8-0.3,1.5-0.9,2.1C19.5,20.7,18.8,21,18,21c-0.8,0-1.5-0.3-2.1-0.9C15.3,19.5,15,18.8,15,18
	c0-0.6,0.2-1.2,0.6-1.8s0.9-0.9,1.4-1.1V7c0-0.5-0.2-1-0.6-1.4C16,5.2,15.6,5,15,5s-1,0.2-1.4,0.6C13.2,6,13,6.4,13,7v10
	c0,1.1-0.4,2-1.2,2.8C11,20.6,10.1,21,9,21z M6,7c0.3,0,0.5-0.1,0.7-0.3S7,6.3,7,6S6.9,5.5,6.7,5.3C6.5,5.1,6.3,5,6,5
	S5.5,5.1,5.3,5.3C5.1,5.5,5,5.7,5,6s0.1,0.5,0.3,0.7C5.5,6.9,5.7,7,6,7z M18,19c0.3,0,0.5-0.1,0.7-0.3c0.2-0.2,0.3-0.4,0.3-0.7
	s-0.1-0.5-0.3-0.7C18.5,17.1,18.3,17,18,17s-0.5,0.1-0.7,0.3C17.1,17.5,17,17.7,17,18s0.1,0.5,0.3,0.7C17.5,18.9,17.7,19,18,19z"/>
</svg>
