<svg width="46" height="43" viewBox="0 0 46 43" fill="none" xmlns="http://www.w3.org/2000/svg">
<path d="M23.0003 25.0837C25.1174 25.0837 26.8337 23.4793 26.8337 21.5003C26.8337 19.5213 25.1174 17.917 23.0003 17.917C20.8832 17.917 19.167 19.5213 19.167 21.5003C19.167 23.4793 20.8832 25.0837 23.0003 25.0837Z" stroke="white" stroke-width="5" stroke-linecap="round" stroke-linejoin="round"/>
<path d="M23 3.58301V10.7497" stroke="white" stroke-width="5" stroke-linecap="round" stroke-linejoin="round"/>
<path d="M13.0335 26.875L6.3252 30.4583" stroke="white" stroke-width="5" stroke-linecap="round" stroke-linejoin="round"/>
<path d="M39.6751 12.542L32.9668 16.1253" stroke="white" stroke-width="5" stroke-linecap="round" stroke-linejoin="round"/>
<path d="M13.0335 16.1253L6.3252 12.542" stroke="white" stroke-width="5" stroke-linecap="round" stroke-linejoin="round"/>
<path d="M39.6751 30.4583L32.9668 26.875" stroke="white" stroke-width="5" stroke-linecap="round" stroke-linejoin="round"/>
<path d="M17.25 39.4163L23 25.083L28.75 39.4163" stroke="white" stroke-width="5" stroke-linecap="round" stroke-linejoin="round"/>
<path d="M15.333 39.417H30.6663" stroke="white" stroke-width="5" stroke-linecap="round" stroke-linejoin="round"/>
<path d="M34.5 33.5042C37.1039 31.3271 38.9393 28.4622 39.7633 25.2886C40.5873 22.115 40.3611 18.7823 39.1145 15.7316C37.8679 12.6809 35.6598 10.0558 32.7823 8.20388C29.9048 6.35193 26.4936 5.36035 23 5.36035C19.5064 5.36035 16.0952 6.35193 13.2177 8.20388C10.3402 10.0558 8.13211 12.6809 6.88553 15.7316C5.63895 18.7823 5.41269 22.115 6.23667 25.2886C7.06066 28.4622 8.89606 31.3271 11.5 33.5042" stroke="white" stroke-width="5" stroke-linecap="round" stroke-linejoin="round"/>
</svg>
