<?xml version="1.0" encoding="utf-8"?>
<!-- Generator: Adobe Illustrator 28.0.0, SVG Export Plug-In . SVG Version: 6.00 Build 0)  -->
<svg version="1.1" id="Capa_1" xmlns="http://www.w3.org/2000/svg" xmlns:xlink="http://www.w3.org/1999/xlink" x="0px" y="0px"
	 viewBox="0 0 30 30" style="enable-background:new 0 0 30 30;" xml:space="preserve">
<style type="text/css">
	.st0{fill:#39A900;}
</style>
<path class="st0" d="M15,26.2l-1.8-1.6c-2.1-1.9-3.8-3.5-5.2-4.9S5.5,17.1,4.7,16S3.3,13.9,3,13s-0.5-1.9-0.5-2.8c0-2,0.7-3.6,2-4.9
	s2.9-2,4.9-2c1.1,0,2.1,0.2,3.1,0.7s1.8,1.1,2.5,1.9c0.7-0.8,1.6-1.5,2.5-1.9s2-0.7,3.1-0.7c2,0,3.6,0.7,4.9,2s2,2.9,2,4.9
	c0,1-0.2,1.9-0.5,2.8s-0.9,1.9-1.7,3s-1.9,2.3-3.3,3.7s-3.1,3-5.2,4.9L15,26.2z M15,22.9c2-1.8,3.6-3.3,4.9-4.6s2.3-2.4,3.1-3.3
	c0.8-0.9,1.3-1.8,1.6-2.5s0.4-1.5,0.4-2.2c0-1.2-0.4-2.3-1.2-3.1s-1.9-1.2-3.1-1.2c-1,0-1.9,0.3-2.7,0.8s-1.4,1.3-1.7,2.1h-2.4
	c-0.3-0.9-0.9-1.6-1.7-2.1s-1.7-0.8-2.7-0.8c-1.2,0-2.3,0.4-3.1,1.2S5,8.9,5,10.2c0,0.7,0.1,1.5,0.4,2.2S6.2,14,7,14.9
	c0.8,0.9,1.8,2.1,3.1,3.3S13,21.1,15,22.9z"/>
</svg>
