<?xml version="1.0" encoding="utf-8"?>
<!-- Generator: Adobe Illustrator 28.0.0, SVG Export Plug-In . SVG Version: 6.00 Build 0)  -->
<svg version="1.1" id="Capa_1" xmlns="http://www.w3.org/2000/svg" xmlns:xlink="http://www.w3.org/1999/xlink" x="0px" y="0px"
	 viewBox="0 0 30 30" style="enable-background:new 0 0 30 30;" xml:space="preserve">
<style type="text/css">
	.st0{fill:#39A900;}
</style>
<path class="st0" d="M27.5,10.2c0,1-0.2,1.9-0.5,2.8c-0.3,0.9-0.9,1.9-1.7,3c-0.8,1.1-1.9,2.3-3.3,3.7c-1.4,1.4-3.1,3-5.2,4.9
	L15,26.2l-1.8-1.6c-2.1-1.9-3.8-3.5-5.2-4.9c-1.4-1.4-2.5-2.6-3.3-3.7c-0.8-1.1-1.4-2.1-1.7-3c-0.3-0.9-0.5-1.8-0.5-2.8
	c0-2,0.7-3.6,2-4.9c1.3-1.3,3-2,4.9-2c1.1,0,2.1,0.2,3.1,0.7c1,0.5,1.8,1.1,2.5,1.9c0.7-0.8,1.5-1.5,2.5-1.9c1-0.5,2-0.7,3.1-0.7
	c2,0,3.6,0.7,4.9,2C26.8,6.6,27.5,8.2,27.5,10.2z"/>
</svg>
