<?xml version="1.0" encoding="UTF-8"?>
<svg id="Capa_2" data-name="Capa 2" xmlns="http://www.w3.org/2000/svg" viewBox="0 0 154.43 128.35">
  <defs>
    <style>
      .cls-1 {
        fill: #ff8700;
      }

      .cls-1, .cls-2, .cls-3, .cls-4, .cls-5, .cls-6, .cls-7, .cls-8, .cls-9, .cls-10, .cls-11, .cls-12, .cls-13, .cls-14, .cls-15, .cls-16, .cls-17, .cls-18, .cls-19, .cls-20, .cls-21, .cls-22, .cls-23, .cls-24, .cls-25 {
        fill-rule: evenodd;
        stroke-width: 0px;
      }

      .cls-2 {
        fill: #f60;
      }

      .cls-3 {
        fill: #1a1a1a;
      }

      .cls-4 {
        fill: gray;
      }

      .cls-5 {
        fill: #600;
      }

      .cls-7 {
        fill: #e3950b;
      }

      .cls-8 {
        fill: #3d3f5e;
      }

      .cls-9 {
        fill: #ffe974;
      }

      .cls-10 {
        fill: #333;
      }

      .cls-11 {
        fill: #4d4d4d;
      }

      .cls-12 {
        fill: #c30;
      }

      .cls-13 {
        fill: #ffb800;
      }

      .cls-14 {
        fill: #bc0000;
      }

      .cls-15 {
        fill: #666;
      }

      .cls-16 {
        fill: #fff;
      }

      .cls-17 {
        fill: #dd6f00;
      }

      .cls-18 {
        fill: #0c63a8;
      }

      .cls-19 {
        fill: #d40000;
      }

      .cls-20 {
        fill: #fc0;
      }

      .cls-21 {
        fill: #630;
      }

      .cls-22 {
        fill: #666886;
      }

      .cls-23 {
        fill: #46a725;
      }

      .cls-24 {
        fill: #900;
      }

      .cls-25 {
        fill: #999;
      }
    </style>
  </defs>
  <g id="Capa_1-2" data-name="Capa 1">
    <path class="cls-6" d="m141.98,90.81c-.42,2.28-.66,2.77-.93,5.37l-.24,2.82c4.43.82,3.41,3.16,2.61,7.25-.42,2.13-.92,3.97-3.42,3.94-.56,0-1.19-.09-1.83-.17,0,0-1.3.84-2.66.35-.4-.15-.64-.37-.77-.65l-.06.05c-.14.09-.33.24-.54.36-.08.04-.15.09-.23.12-.12,3.74-1.11,9.2-4.01,11.59-1.43,1.18-3.21.91-5.3.87-3.39-.08-5.83.41-7.62-3.29-1.41-2.91-1.51-7.27-.98-10.4-5.94-.82-9.4-1.04-15.69-1.19-5.7-.14-2.56.29-4.91.54l-1.62.02c.11,5.11-.85,18.64-7.56,19.58-2.95.41-4.94.48-8.14.27-4.24-.27-7.25-1.34-9.92-4.73-1.54-1.95-2.08-3.76-2.62-6.15-8.91,1.62-25.36.67-34.74-.3-.54,2.56-2.42,7.59-5.27,8.11-4.32.79-11.75.73-14.95-2.75-2.34-2.56-3.38-6.51-4.02-9.8-3.68-1.24-5.33-2.87-6.22-6.96-.53-2.45-.79-5.41,1.59-6.79l1.41-.63c-.39-3.12-.05-5.72-2.02-8.74-1.48-2.27.27-4.62,2.28-6.03,2-1.39,4.96-2.57,7.2-3.34-2.09-4.46-2.72-5.54.52-9.62,3.67-4.61,6.98-7.34,11.87-10.3.11-6.1.25-18.06-1.53-23.67-1.15-3.62-4.06-1.03-7.69-3.96l-.62-.85c-.72-1.54-.02-4.66.73-6.25.72-1.53,1.75-3.02,2.95-4.38-.12-.12-.21-.29-.23-.51-.4-3.79-.59-5.09-2.19-8.13-.8-1.54.05-2.16,2.17-3.35C27,3.39,40.24.31,52.32.02c7.63-.18,21.1,1.04,27.88,3.09,9.66,2.92,30.51,14.48,39.86,20.64,7.06,4.66,24.66,15.53,28.16,20.8,1.85,2.77,1.21,5.35.71,8.74-.02.14-.06.25-.13.35.64.72,1.2,1.41,1.65,2.07,2.42,3.5,4.78,10.33,3.7,14.23-.43,1.54-1.13,1.52-2.11,1.79-1.34.36-1.05.41-1.91,1.5-3.41,4.31-6.78,12.2-8.16,17.6h0Zm-22.18-59.43c5.37,3.37,10.55,6.91,15.32,10.43,3.33,2.46,8.62,6.61,12.32,10.38l.19-1.37c-5.01-5.04-7.26-7.06-13.65-11.93-4.57-3.49-8.84-6.48-13.9-9.55-.07.66-.09,1.48-.28,2.04h0ZM18.32,19.74c1.63-1.59,3.46-2.96,5.28-4.01,6.6-3.8,14.24-5.93,21.92-6.87l-.11-2.74c-8.34.88-17.13,3.56-24.3,7.69-1.16.67-2.26,1.36-3.36,2.06l.57,3.88Zm28.81-11.06c2.43-.25,4.86-.38,7.25-.42,7.8-.12,15.39,1.27,22.84,3.46.21-.97.41-1.95.55-2.9-9.2-2.62-21.16-3.64-30.75-2.86l.11,2.71Zm31.64,3.52c5.02,1.55,9.98,3.45,14.91,5.47,8.17,3.35,16.59,7.84,24.62,12.78.09-.63.17-1.28.24-2.03-8.84-5.23-29.95-16.16-39.21-19.11l-.56,2.9Zm39.9,14.41c.03-.57.06-1.17.09-1.76-11.06-6.98-21.68-12.91-32.83-17.79l-6.46-2.47c.06,1.01.1,2.03.04,3.07,9.29,2.89,30.25,13.74,39.16,18.95h0Zm29.14,22.1c.08-2.56-1.4-4.16-3.52-6.06-4.85-4.32-16.88-12.29-23.95-16.8-.03.59-.06,1.16-.1,1.69,8.32,4.99,19.79,13.35,26.41,20l1.17,1.17ZM45.26,4.5l-.57-2.31c-9.43,1.12-19.25,3.93-27.1,8.32-2.2,1.23-1.61,1.01-1.43,1.36.31.58.73,1.4,1.1,2.38,6.47-4.07,12.38-6.63,20.1-8.43l7.9-1.32Zm32.66,2.68c.04-1.01-.01-2.02-.09-3.04-6.58-1.57-18.04-2.68-25.47-2.5-2.03.05-4.04.18-6.02.37l.53,2.34c9.78-.8,21.7.21,31.04,2.83h0Z"/>
    <path class="cls-24" d="m62.01,84.9c-1.41,1.13-1.3,2.32-1.16,4,.14,1.59.85,11.12,2.43,11.77,1.18.48,12.04,1.45,13.43.68,1.07-.59.78-2.78.7-4.45-.12-2.44-.45-10.37-1.53-12.2-1.56-2.64-9.37-1.76-11.58-1l-2.29,1.2Zm3.16,11.47c-1.91-1.36-2.62-4.1-1.87-6.27.4-1.16.32-2,1.84-3.25,5.03-4.11,12.14,1.8,9.16,7.83-1.87,3.78-7.18,3.73-9.13,1.69h0Z"/>
    <path class="cls-18" d="m119.76,79.3l6.71,2.46c1.39-8.53,2.89-11.93,6.17-19.82,1.22-2.94,1.77-4.08,4.4-2.31,1.12.75,4.51,3.37,5.12,4.66.36.76-.61,2.51-1.05,3.48-1.86,4.07-3.16,7.11-4.55,11.47-1.09,3.39-1.07,3.72-3.63,2.4-1.38-.71-1.83-.77-2.21,1.94,4.63,2.13,7.53,3.88,10.81,6.62,1.4-5.34,4.79-13.13,8.15-17.38.71-.9,1.16-1.23.34-2.76-1.72-3.21-13.49-13.21-16.7-15.79-9.31-7.49-25.18-17.48-36.56-21,3.26,2.43,2.62,4.1,1.92,7.88-2.14,11.49-3.15,19.17-3.93,30.78,1.16.32,2.17.6,3.32.92.65-9.88,1.89-18.23,4.03-27.61,1.39-6.07,1.45-6.61,9.11-3.09,1.73.79,7.14,3.37,7.89,4.93.41.86-.2,2.54-.56,3.84-2.07,7.5-3.2,12.77-4.46,20.57-.61,3.77-.68,3.1-7.62.92-1.67-.53-1.93-.88-2.38,2.13l10.97,3.23c1.1-7.06,3.39-16.92,5.45-23.69,1.46-4.81,1.83-4.51,6.25-1.61.73.48,4.77,3.23,5.35,4,.7.93-.84,3.97-1.44,5.42-1.65,4.03-2.86,7.28-4.1,11.36-1.46,4.81-1.36,5.13-4.27,3.63l-.89-.41c-1.29-.39-1.47,1.61-1.63,2.82h0Zm20.52,18.75c-3.25-.84-6.3-1.55-10.65-2.07l-.14,4.62c2.2-1.29,8.34-1.1,5.95,7.35-.35,1.24-.42,2.27,1.65,1.88,1.92-.36,2.45-4.31,2.67-5.91l.52-5.87Zm-26.45-2.88c-3.44.03-6.98.18-10.54.36.07,3.53.12,4.84-3.59,4.79h-.72c-.2,1.91-.64,5.44-1.33,6.86,4.35-.07,11.83.32,16.02.89l9.63,1.46c2.09.37,2,.83,2.77-2.81.29-1.35.54-2.55,1.21-3.75-2.32-.31-2.18-.85-2.14-2.85l.13-4.57-6.71-.35c-.11,5.36.7,6.51-3.07,5.71-1.83-.39-1.72-.84-1.7-3.09,0-.7.02-1.62.04-2.65h0Z"/>
    <path class="cls-16" d="m141.34,90.86c-3.33-2.79-6.01-4.47-10.73-6.65l-.4,3.78c4.75,1.74,7.6,3.12,10.69,4.85.13-.67.27-1.33.43-1.98h0Zm-37.82-9.88c3.64.65,7.26,1.36,10.84,2.23l.59-4.83-10.96-3.23-.46,5.83Zm-9.24-1.54c1.18.19,2.22.35,3.38.55.1-2.22.21-4.39.34-6.5l-3.32-.92c-.14,2.24-.28,4.55-.4,6.88h0Zm24.92,5.03l6.62,2.01.54-4.1-6.69-2.47-.47,4.56Z"/>
    <path class="cls-23" d="m140.8,93.48c-3.09-1.72-5.83-3.09-10.64-4.85l-.27,3.14,10.67,3.4c.07-.56.15-1.12.24-1.68h0Zm-43.16-12.88c-1.16-.19-2.21-.36-3.39-.55-.11,1.95-.3.65,1.32,3.24l1.84,3.43c.07-2.05.15-4.1.23-6.12h0Zm16.67,3.22c-3.56-.86-7.17-1.57-10.81-2.22l-.21,6.52,10.72.81.31-5.11Zm4.5,5.7l6.69,1.18.27-3.59-6.61-2.01-.35,4.43Z"/>
    <path class="cls-20" d="m140.49,95.78l-10.64-3.4-.19,3c4.34.52,7.43,1.23,10.67,2.06l.16-1.66Zm-37.22-.86c3.57-.18,7.11-.33,10.57-.36l.14-5.03-10.71-.81v6.21Zm15.31-.32l6.71.35.16-3.64-6.69-1.18-.19,4.48Z"/>
    <path class="cls-21" d="m134.89,81.74c.38-.15,1.64-4.41,1.94-5.27,1.18-3.35,2.65-6.59,4.05-9.67.66-1.45,1.04-1.95.49-2.6.2,1.23-1.42,4.2-2.15,5.88-1.59,3.68-3.08,7.91-4.32,11.66h0Zm-32.74,10.89v.03c0,2.39.03,4.63.06,6.49.66-.68.49-2.43.46-3.68-.07-3.64-.06-20.73,1.4-23.39-1.24.2-1.19,1.59-1.38,3.44-.45,4.43-.56,11.23-.54,17.11h0Zm15.34-46.31c.47,1.17.07,2.16-.31,3.49-2.26,7.88-3.75,15.57-5.07,23.74,1.22.3,1.1-.51,1.55-3.38,1.14-7.21,2.5-13.01,4.42-19.92.72-2.58.94-2.8-.59-3.93h0Zm6.75,30.75c.66.22,1.39-2.86,1.73-3.98,1.57-5.21,2.92-8.36,4.95-13.46.83-2.09,1.1-2.48.3-3.15.34,1.29-.82,3.67-1.54,5.53-1.82,5.03-3.63,10.03-5.45,15.05h0Zm-4.23-.75c-.93.53-1.26,4.89-1.41,6.27-.78,6.8-.98,11.09-.93,17.86.34-.16.26-1.15.26-2.38.01-5.07.53-14.92,1.36-19.72.14-.81.33-1.54.73-2.02h0Zm8.86,24.71c.05-3.24.67-17.07,1.67-19.41.11-.26.24-.46.38-.62-.73.16-.95,2.64-1.09,3.64-.74,5.37-.95,10.96-.98,16.4h.01Z"/>
    <path class="cls-24" d="m22.33,62.28c.81-.35,2.4-2.27,7.66-3.51l5.5-.95c8.01-1,2.59.33,8.4-2.11-4.25.23-11.96,1.32-15.98,2.8-2.37.88-5.3,2.69-7.45,4.16l1.87-.39Z"/>
    <path class="cls-19" d="m22.64,62.8c-1.22,1.3-3.96,4.37-4.23,6.09-.1.65.14,1.14-.29,1.18-.72.07-.29-1.82.32-2.88.82-1.44,2.02-2.93,3.15-4.16l-2.59.69c-.73.37-3.83,3.39-4.5,4.1-1.72,1.8-5.06,5.29-4.8,7.68.18,1.62,3.33,7.57,4.36,10.89,1.9,6.13,1.12,13.7,1.98,15.6.68,1.5,3.64,1.68,5.54,1.85,4.75.42,28.91,1.18,32.58-.06,2.67-.9,2.95-3.26,3.01-5.92.1-4.67-.76-13.3-2.4-17.73-2.03-5.5-5.81-7.49-11.31-8.98-8.59-2.33-19.2-1.9-27.59.94l-4.86,1.96c-.38.15-.61-.39-.24-.56,7.84-3.48,14.81-4.79,23.52-4.38,5.13.24,12.77,1.65,16.88,4.83,4.37,3.39,5.4,9.46,6.04,14.84.39,3.23,1.24,10.89-.32,13.6l-1.14,1.27c1.57-.27,5.06-2.18,6.62-2.96-1.12-1.59-2.65-12.88-2.04-14.54.3-.82,0-1.81,1.9-3.84,3.98-4.23,12.76-6.9,18.47-6.95-1.02-4.82-2.22-8.58-6.48-11.45-1-.67-3.21-1.77-4.32-1.73-2.12.6-4.26,1.21-6.99,2.4-2.78,1.21-6.18,3.02-9.57,4.83-.35.19-.64-.35-.28-.54,6.47-3.45,9.76-5.32,16.12-7.12-2.34-2-6.73-2.54-9.94-3.06-3.6-.58-9-1.11-12.55-1.13-.92,0-1.78.05-2.64.1l-6.57,3.41c-3.25,2.05-5.75,4.25-8.12,6.89-1.5,1.68-1.55.45-1.4-.02.83-2.48,6.91-7.14,9.14-8.61.72-.47,1.43-.91,2.1-1.3-5.24.45-11.8,1.14-16.06,4.41-.2.16-.35.27-.52.35h0Zm-.77,40.01c-5.78-.45-5.07-.46-5.18-3.33-.3-8.04-1.23-13.35-4.82-20.57-1.27-2.56-2.11-3.78,2.76-5.55,5.22-1.9,13.34-3,18.95-2.85,4.53.11,11.94.69,15.48,3.67,5.87,4.95,7.69,24.34,5.98,27.23-.81,1.38-3.63,1.35-5.52,1.46-7.97.46-19.71.55-27.65-.06h0Z"/>
    <path class="cls-24" d="m69.97,61.58c1.23.34,1.31.03,3.39,1.12,4.22,2.21,6.4,5.95,7.49,10.49.17.73.32,1.45.48,2.17,1.74.04,3.35.3,5,.85-.66-8.59-2.07-12.81-10.85-16.29-6.18-2.45-14.75-4.11-21.33-4.42-1.36-.07-2.62-.09-3.87-.1l-1.27.45-3.38,1.12c4.68-.16,19.17,1.17,22.97,3.59l1.37,1.01Z"/>
    <path class="cls-13" d="m94.98,29.06c12.03,4.9,20.51,9.09,31.41,16.54,7.93,5.41,16.94,13.13,23.16,20.15,1.67,1.89,2.57,3.13,3.58,4.91,1.55-1.61.08-7.61-.63-9.63-1-2.84-2.43-5.06-4.2-7.08-.49.08-1.06-.26-.97-.91l.02-.12c-1.41-1.48-3-2.88-4.72-4.37-5.78-5.03-13.93-10.82-22.19-16.03-1.21-.76-2.18-1.36-3.49-2.16-5.68-3.46-11.26-6.55-16-8.82-6.33-3.04-15.08-6.43-22.37-8.75-.07.09-.15.15-.25.2,5.23,2.25,10.24,5.25,13.92,9.55,1.22,1.42,3.52,4.58,2.72,6.52h0Zm-17.85-16.73c-.57-.18-1.14-.35-1.69-.51.57.21,1.14.44,1.72.67-.02-.05-.02-.11-.03-.16h0Z"/>
    <path class="cls-7" d="m49.4,54.23c.25.04.5.11.73.23.16.09.29.2.35.33,8.3.12,17.37,1.46,25.22,4.57,9.16,3.63,10.57,8.15,11.25,17.08,2.35.88,4.95,2.38,6.67,4.22.86-15.91,1.56-24.05,4.49-39.79.68-3.63,1.27-5.09-2.12-7.39-.96-.65-1.61-.93-2.23-1.07,1.03.65,1.53,1.58,1.52,3.04-.02,2.17-1.38,11.74-1.81,14.95-.38,2.79-1.03,8.66-1.56,9.61-1.47,2.63-5.33.71-7.76-.06-2.11-.67-5.14-1.52-8.37-2.29-8.89-2.09-17.61-3.38-26.37-3.44h0Zm103.19,16.73c-3.44-6.06-13.8-15.2-19.51-19.7-6.94-5.46-15.63-10.96-23.56-15.04-5.34-2.75-10.12-4.71-14.9-6.65-.76.67-2.86.13-4.2-.12-20.89-3.83-39.3-5.16-60.21-.22-3.05.72-12.67,3.48-14.8,3.55,5.11,2.54,7.07-2.56,8.21,12.58.37,4.92.3,9.47.21,14.46,4.62-2.73,9.22-3.48,14.65-4.18l5.97-.57c1.77-.04.62.09,2.66-.57.38-.13.79-.23,1.2-.29-5.78.03-11.57.59-17.45,1.8-2.14.44-4.61,1.37-5.45.23-.56-.77-.82-4.77-.96-6.28l-1.36-11.86c-.55-3.71-1.19-4.03,2.13-4.85,12.45-3.08,32.41-3.58,45.7-3.07,3.47.13,14.93.64,19.68,1.27h.02l.25.04c.96.11,2.39.12,3.3.39,7.25,2.15,10.77,3.66,17.65,7.46,13.13,7.25,22.88,14.51,33.59,24.74,1.98,1.89,5.45,4.91,5.63,7.34l1.56-.47Z"/>
    <path class="cls-7" d="m64.89,9.6c-4.7-.86-10.37-.98-16.09-.48-1.22.11-3.43.37-4.62.54-4.56.66-8.93,1.7-12.56,3.05-4.68,1.74-8.86,3.74-12.31,6.94-.39.37-1.55,1.57-1.89,1.97-.41.48-.81.98-1.19,1.51-1.64,2.26-2.9,5.11-2.46,7.77.33,1.99,2.61,1.26,4.76.73,8.65-2.11,13.47-3.89,23.29-5.15,17.29-2.22,31.78-.73,48.73,2.37,2.5.46,4.55,1.2,3.9-1.47-.95-3.91-6.75-8.59-10.09-10.68-5.19-3.24-13.35-6.18-19.45-7.11h0Zm4.93,2.5l5.55,1.56c6.11,2.09,13.94,6.27,17.27,11.86,2.19,3.67-1.49,2.41-3.69,1.98-14.54-2.87-32.47-4.16-47.1-2.12-9.16,1.28-14.78,2.98-23.09,5.01-3.05.75-4.89,1.61-3.28-2.39,1.73-4.32,5.32-8.27,9.5-10.66,5.81-3.32,14.98-5.67,21.41-6.39,7.63-.85,15.86-.56,23.43,1.15h0Z"/>
    <path class="cls-4" d="m85.48,100.99l-.76-1.3c-1.12,1.44-10.32,4.81-12.4,5.45-6.99,2.19-13.45,2.07-21.08,2.03-12.59-.07-32.33-.62-44.39-3.12-2.11-.44-5.37-1.18-6.08-2.77-.61,2.48.52,7.62,3.1,9.42,4.46,3.1,22.61,5.31,28.15,5.85,8.91.87,24.55,1.71,32.99.26,4.69-.81,12.68-3.5,17.23-5.41,2.6-1.08,3.7-1.55,3.93-5.11.11-1.66-.06-3.8-.7-5.31h0Zm-64.81,7.3c.38-.6,1.02-.48,1.75-.4,5.64.57,8.32.88,14.25,1.03,4.34.11,4.23-.3,4.38,3.27.14,3.31.04,3.33-2.44,3.38-2.95.05-15.93-.39-17.73-2.14-.55-.54-.49-1.38-.5-2.32-.01-.84-.08-2.22.3-2.81h0Z"/>
    <path class="cls-20" d="m88.06,105.08c-.76.36-.32-2.05-1.74-3.51.71,2.41,1.01,7.56-1.46,9.26-.26.18-.57.36-.99.55.15.8.82,5.34,2.51,4.72,1.05-.38,1.79-3.66,1.86-4.9.11-1.99.11-4.24-.19-6.12h0Z"/>
    <path class="cls-11" d="m83.66,98.99l-1.17.05c-.38,1.02-4.08,2.77-4.88,2.97-2.34.59-13.48-.12-14.77-.89-2.03,1.03-5.46,3-7.57,3.2-.33.03-.65.04-.97.05-.46.15-.99.26-1.64.35-4.83.65-29.71.32-34.41-.72-1.94-.43-2.78-1.08-3.07-2.89-2.3.11-8.59.61-10.54-.41-.73-.39-1.02-1.02-1.19-1.85-2.4.94-3.36,2.34-.2,3.59,5.65,2.23,22.32,3.36,29.02,3.66,8.49.38,28.14,1.12,35.9-.49,3.81-.79,12.49-3.91,15.53-5.84l.59-.54-.63-.23Z"/>
    <path class="cls-10" d="m116.62,109.09c-.65,3.75-.5,12.45,4.52,12.89l4.94.14c-2.83-2.06-2.94-8.92-2.94-11.99l-6.52-1.04Z"/>
    <path class="cls-15" d="m127.81,122.08c3.02-.26,4.59-5.21,5.05-7.68.67-3.54.93-9.92-1.45-12.92-.21-.26-.41-.5-.62-.74-4.43.95-3.91,8.49-5.31,9.47-.4.28-1.1.14-1.73.03,0,2.7.11,9.87,2.87,11.52l1.19.32Zm-.02-17.8c1.16-2.38,3.1-1.85,3.84.09,2,5.28.02,15.73-3.4,15.2-2.79-.43-2.27-8.66-1.99-10.44.26-1.68.73-3.46,1.55-4.85h0Z"/>
    <path class="cls-10" d="m138.7,109.47c3.77.47,3.62-.88,4.54-5.44.57-2.84.45-3.87-2.48-4.43-.19,2.52-.54,7.77-2.07,9.87h0Z"/>
    <path class="cls-10" d="m23.7,124.82c-3.07-1.56-4.2-6.25-5.08-9.39-3.74-.64-8.16-1.6-11.37-2.6.8,4.04,2.27,9.27,6.47,10.99,2.75,1.12,7.06,1.27,9.99,1h0Z"/>
    <path class="cls-10" d="m66.15,117.23c.81,3.58,1.93,6.05,5.01,8.29,3.22,2.35,8.3,2.32,12.25,2.15.35-.01.66-.03.93-.06-3.51-1.7-5.65-8.52-6.17-12.09-.09-.62-.16-1.23-.23-1.84-3.9,1.41-7.73,2.75-11.8,3.55h0Z"/>
    <path class="cls-24" d="m6.57,96.06c-4.36-4.48-.38-11.31,5.47-9.85l1.52.61-1.23-3.38c-2.75.07-10.78.38-10.85,4.47-.03,1.9,1.82,1.26,2.34,8.57.25,3.57.15,4.25,5.49,4.22,1.55,0,3.66-.11,5.8-.21l-.25-4.34c-1.8,1.93-4.91,2.23-6.98,1-.54-.32-.92-.71-1.3-1.11h0Z"/>
    <path class="cls-24" d="m47.29,55.09c-6.27,2.04-12.2,5.75-16.8,10.47l-1.8,2.25c5.13-5.66,9.49-8.3,16.43-11.28,2-.86,4.33-1.39,4.68-1.55-.79-.33-1.69-.15-2.5.11h0Z"/>
    <path class="cls-14" d="m3.27,84.5c2.45-1.34,6.04-1.59,8.81-1.66-.32-.73-.66-1.46-.99-2.17-2.39.82-5.82,2.17-7.82,3.82h0Z"/>
    <path class="cls-11" d="m100.37,57.25c1.2.16,2.43.34,3.93.68.83.2,1.75.44,2.66.71.88.27,1.78.57,2.62.88,1.55.58,2.86,1.2,4.14,1.81.83-3.96,1.79-7.88,2.94-11.92.88-3.05.49-3.58-2.83-5.3-1.46-.76-8.08-4.19-9.48-3.36-.87.51-1.37,3.26-1.68,4.63-.93,4.05-1.69,7.94-2.31,11.86h0Zm28.86,15.2c.88.29,1.77.58,2.73.96.54.21,1.11.45,1.63.7.48.22.94.45,1.32.67.41.23.71.44.97.65.16.12.3.25.43.36,1.02-2.77,2.1-5.44,3.43-8.38,1.24-2.74,1.8-3.39-.9-5.68-.79-.67-2.94-2.49-3.95-2.28-.77.16-1.09,1.27-1.81,3.02-1.66,4-2.89,6.99-3.85,9.99h0Zm-11.16-6.79c1.58.49,3.14,1,4.56,1.64.75.34,1.44.73,2.11,1.12.55.33,1.08.66,1.61,1l2.76-7.63c.5-1.3,1.68-4.08,1.58-4.88-.17-1.29-1.25-1.85-2.43-2.67-.77-.54-4.93-3.48-5.67-3.27-1.01.29-3.22,9.05-4.53,14.68h0Z"/>
    <path class="cls-8" d="m98.99,92.2l2.56.13c0-3.77.04-8.33.21-12.18l-3.47-.47c-.12,2.77-.22,5.6-.32,8.43.02.14.73,2.05,1.02,4.09h0Zm26.94,1.93l2.48.15c.1-2.38.25-4.82.49-7.09-.44-.14-.87-.28-1.3-.4-.41-.12-.78-.21-1.16-.3-.25,2.43-.41,5.07-.52,7.65h0Zm-11.47-.89l.56.02c.29.01.57.03.83.05.27.02.54.05.82.08.18.02.33.04.48.05.11-3.21.32-6.36.68-9.61-.49-.1-.98-.2-1.46-.29-.47-.09-.93-.17-1.39-.25-.3,3.16-.45,6.29-.52,9.95h0Z"/>
    <path class="cls-14" d="m98.43,92.62s-.04-.1-.03-.15c0-.02,0-.03,0-.04-.19-1.41-.52-2.79-1.02-4.15l-.93-2.17c-2.33-4.75-5.14-7.55-10.18-9.27-1.68-.57-3.41-.86-5.19-.88-5.92-.03-16.51,3.11-19.45,8.12-.13.21-.22.42-.3.61,2.51-2.37,7.81-2.56,11.03-2.25,4.52.44,4.75,2.69,5.17,7.16.19,1.96.86,9.66.4,11.18-.09.27-.19.45-.31.59.57-.17,4.25-1.89,4.34-2.67.41-3.38-.1-7.28,3.09-9.55,3.31-2.35,8.58.24,10.3,4.92,1.77,4.79.64,15.17,1.78,12.81.93-1.92,1.49-8.21,1.51-10.84,0-1.18-.05-2.32-.19-3.44h0Z"/>
    <path class="cls-22" d="m126.51,85.87c.42.1.84.21,1.25.32.39.11.79.24,1.2.37.16-1.48.36-2.87.61-4.11.65-3.33,2.1-1.95,4.53-.92.07.03.13.05.19.08.61-1.84,1.2-3.55,1.8-5.22-.19-.17-.38-.33-.59-.5-.25-.19-.53-.39-.9-.6-.36-.2-.79-.42-1.27-.64-.51-.24-1.07-.48-1.6-.68-.94-.37-1.82-.66-2.69-.94-1.02,3.27-1.73,6.63-2.36,11.39-.06.47-.12.96-.18,1.45h0Zm-28.19-6.8l3.47.47c.19-3.86.53-6.9,1.1-7.52,1.18-1.28,3.99-.1,5.39.34l3.24,1.02c.64-3.95,1.3-7.71,2.07-11.43-1.32-.63-2.65-1.26-4.22-1.85-.81-.3-1.69-.6-2.58-.86-.91-.28-1.81-.52-2.62-.71-1.5-.35-2.7-.52-3.89-.68-.65,4.2-1.13,8.47-1.48,13.06-.19,2.62-.35,5.36-.48,8.16h0Zm16.72,3.61c.46.08.94.16,1.44.26.45.08.93.18,1.41.28.15-1.28.32-2.58.51-3.91.78-5.33,2.13-3.75,5.26-2.44l2.48-6.86c-.56-.36-1.12-.72-1.71-1.07-.66-.39-1.34-.76-2.06-1.09-1.36-.62-2.9-1.12-4.45-1.6-.43,1.86-.75,3.3-.86,3.84-1.03,4.93-1.65,8.82-2.04,12.59h0Z"/>
    <path class="cls-15" d="m128.38,94.89l-2.48-.15c-.07,1.89-.12,3.73-.16,5.4-.03,1.71-.33,2.06,1.89,2.27l.62-.79c0-2,.05-4.33.14-6.74h0Zm-26.84-1.95l-2.48-.12c.26,2.27.18,4.57-.03,6.91.72-.06,1.79.11,2.57-.18-.01-.89-.05-3.41-.06-6.6h0Zm15.58,1.11l-.53-.06c-.25-.03-.52-.05-.79-.07-.28-.02-.55-.04-.81-.05l-.54-.02c-.02,1.26-.04,2.58-.05,3.99-.02,1.98-.42,2.46,2.47,2.66.07,0,.14.01.2.01-.02-2.21,0-4.35.06-6.46h0Z"/>
    <path class="cls-25" d="m18.81,101.88c6.66.95,26.82.98,33.45.16,2-.25,2.47-.6,2.68-2.61.63-6-1.41-20.7-6.27-24.79-4.63-3.9-17.07-3.89-22.84-3.13-1.75.23-14.61,2.25-14.37,4.85.06.67,1.75,3.88,2.2,4.91,4.31,9.84,3.38,19.35,3.76,20.22l1.39.39Zm15.34-19.57c-1.6,0-1.6-2.43,0-2.43h14.74c1.6,0,1.6,2.43,0,2.43h-14.74Zm1.02,3.66c-1.6,0-1.6-2.43,0-2.43h14.73c1.6,0,1.6,2.43,0,2.43h-14.73Zm.88,3.69c-1.6,0-1.6-2.44,0-2.44h14.73c1.61,0,1.61,2.44,0,2.44h-14.73Zm.75,3.71c-1.61,0-1.61-2.44,0-2.44h14.73c1.61,0,1.61,2.44,0,2.44h-14.73Zm.62,3.72c-1.6,0-1.6-2.44,0-2.44h14.74c1.61,0,1.61,2.44,0,2.44h-14.74Zm.49,3.74c-1.61,0-1.61-2.44,0-2.44h14.75c1.61,0,1.61,2.44,0,2.44h-14.75Zm-16.95,0c-1.6,0-1.6-2.44,0-2.44h12.23c1.61,0,1.61,2.44,0,2.44h-12.23Zm-.41-3.74c-1.61,0-1.61-2.44,0-2.44h12.22c1.6,0,1.6,2.44,0,2.44h-12.22Zm-.52-3.72c-1.6,0-1.6-2.44,0-2.44h12.21c1.61,0,1.61,2.44,0,2.44h-12.21Zm-.62-3.71c-1.61,0-1.61-2.44,0-2.44h12.21c1.61,0,1.61,2.44,0,2.44h-12.21Zm-.73-3.69c-1.6,0-1.6-2.43,0-2.43h12.21c1.6,0,1.6,2.43,0,2.43h-12.21Zm-.84-3.66c-1.6,0-1.6-2.43,0-2.43h12.22c1.6,0,1.6,2.43,0,2.43h-12.22Zm-.95-3.64c-1.61,0-1.61-2.44,0-2.44h12.23c1.6,0,1.6,2.44,0,2.44h-12.23Zm16.11,0c-1.6,0-1.6-2.44,0-2.44h14.75c1.61,0,1.61,2.44,0,2.44h-14.75Z"/>
    <path class="cls-17" d="m128.93,116.4c-1.21.79-1.84-1.38-1.96-2.46-.23-2.05-.01-6,1.43-7.55.38-.4.82-.48,1.25-.14-.28-.75-.64-1.35-1.42-1.51-1.77,3.2-2.14,9.57-1.02,12.86.84.28,1.36-.47,1.73-1.2h0Zm-41.29-.78c-1.07,1.97-2.95,1.48-3.84-1.76-.19-.69-.34-1.45-.49-2.23-.19.08-.39.16-.6.25.18,1.08,1.06,6.21,1.82,7.04.45.5,1.26.3,1.83-.38.6-.71,1.01-1.88,1.29-2.92h0Zm-1.65-15c.63.28.97.66,1.33,1.3-.29-.92-1.57-4.51-3.02-3.4.68.25,1.41,1.46,1.69,2.1h0Z"/>
    <path class="cls-20" d="m130.05,108.77c-.04-.2-.15-1.84-.9-2.11-.57-.21-1.35,2.46-1.46,3.14-.2,1.24-.47,5.36.67,6.11.53.35,1.39-1.64,1.57-2.75l.12-4.38Z"/>
    <path class="cls-10" d="m128.55,104.19c2.93.79,2.22,8.39,1.7,10.34-.32,1.18-1.16,3.87-2.75,3.76.95,1.65,2.29,0,2.89-1.24,1.55-3.23,1.93-9.1.66-12.46-.58-1.53-1.7-1.49-2.17-.88l-.34.49Z"/>
    <path class="cls-9" d="m6.98,95.61c2.34,2.09,6.09,1.48,7.39-1.92.51-1.34.19-3.11-.72-4.18-4.16-4.88-11.21,1.3-6.67,6.1h0Z"/>
    <path class="cls-1" d="m11.41,97.24c1.18-.13,2.19-.64,2.99-1.49.52-.55.42-.34.36-1.42-.67,1.44-1.78,2.51-3.35,2.91h0Zm2.41-9.51c-1.77-1.62-5.86-1.66-7.75,1.34,1.81-2.37,5.6-2.82,8.08.08-.1-.48-.21-.95-.33-1.42h0Z"/>
    <path class="cls-3" d="m19.27,115.54c.76,2.72,2.16,8.29,5.4,8.99,2.93.63,5.05-5.29,5.54-7.55l-10.94-1.44Z"/>
    <path class="cls-20" d="m21.34,108.47c-.54.26-.51,4.06-.05,4.51,1.65,1.6,18.19,2.38,18.98,1.8.39-.29.16-4.81-.18-5.03-.34-.22-7.33-.35-8.03-.39l-10.73-.9Z"/>
    <path class="cls-9" d="m65.66,88c-1.97,1.36-2.2,2.82-1.77,4.97.46,2.32,1.77,3.7,4.25,3.75,4.96.1,6.75-6.44,2.6-8.84-1.38-.8-3.61-.89-5.07.12h0Z"/>
    <path class="cls-1" d="m65.34,87.47c3.61-2.46,9.57.7,8.09,5.96-.5,1.79-1.84,3.11-3.62,3.65,5.66-.73,6.2-8.66.79-10.68-1.83-.68-3.83-.21-5.26,1.07h0Z"/>
    <path class="cls-5" d="m18.3,25.52c-.43.29-.68.68-.77,1.18l.77-1.18Z"/>
    <path class="cls-12" d="m18.9,25.86c-1.7.91-.73,3.69,1.46,2.92,2.01-.71.68-4.07-1.46-2.92h0Z"/>
    <path class="cls-24" d="m70.15,12.8c.65,4.37.38,7.2.01,11.53,6.74.55,13.6,1.5,20.09,2.8,2.21.45,3.16.85,1.88-1.3-4.07-6.82-14.47-11.26-21.98-13.03h0Zm-52.61,12.57c2.61-2.64,6.1,1.77,3.53,3.7-.11.08-.21.15-.33.2l9.92-2.48c.84-3.64.38-7.62-.4-11.25-5.67,2.19-9.55,4.75-12.73,9.82h0Zm1.73,4.27c-1.47,0-2.85-1.51-2.25-3.41-.36.64-1.85,3.69-1.46,4.2l3.71-.79Zm7.72-2.12c-1.5.33-2.76.28-4.04-.93-2.45-2.31-1.53-7.25,3.06-7.17,4.43.09,5.65,7.04.98,8.1h0Zm55-2.62c-2.1-2.35.55-6.48,3.77-4.83,1.41.72,2.03,2.51,1.61,3.89-.64,2.14-3.85,2.64-5.38.94h0Zm-5.18-.68c-1.65.37-3.03.34-4.48-1.02-2.7-2.55-1.69-8.01,3.39-7.91,4.97.09,6.16,7.93,1.09,8.94h0Z"/>
    <path class="cls-5" d="m69.55,24.29c.38-4.55.64-7.09-.04-11.63-12.57-2.83-26.62-1.82-38.67,2.68.75,3.52,1.28,7.76.48,11.32,13.7-2.98,24.38-3.43,38.24-2.37h0Z"/>
    <path class="cls-2" d="m27.35,20.94c-2.68-.79-5.24,1.74-3.65,4.51,1.79,3.13,6.5,1.11,5.57-2.59-.24-.98-.92-1.62-1.92-1.91h0Z"/>
    <path class="cls-5" d="m27.2,20.28c-2.18-.95-5.72.66-4.83,4.16.19.76.64,1.46,1.25,1.93-2.5-2.84,0-6.81,3.59-6.08h0Z"/>
    <path class="cls-12" d="m83.71,21.17c-2.27,1.22-.89,4.86,1.91,3.84,2.26-.82,1.41-4.64-1.32-4.06-.21.04-.41.12-.59.21h0Z"/>
    <path class="cls-5" d="m77.32,16.29c-2.37-1.32-6.74.43-5.7,4.54.25.97.84,1.82,1.68,2.36-2.81-2.72-.93-7.31,3.13-7.04.3.02.59.07.89.15h0Z"/>
    <path class="cls-2" d="m77.22,16.9c-3.01-.88-5.88,1.96-4.11,5.07,2.01,3.51,7.3,1.25,6.27-2.91-.28-1.1-1.05-1.83-2.16-2.16h0Z"/>
    <path class="cls-5" d="m84.36,20.33c-1.99-.01-2.95,1.99-2.29,3.58-.41-1.6.51-3.33,2.29-3.58h0Z"/>
  </g>
</svg>