<svg xmlns="http://www.w3.org/2000/svg" height="48" viewBox="0 -960 960 960" width="48"><path d="M210-61v-91h224v-152h-74q-92.865 0-157.432-64.275Q138-432.55 138-525.098q0-62.411 33-116.657Q204-696 262-724q13-79 75.397-131 62.396-52 142.478-52 80.083 0 142.604 52Q685-803 698-724q58 28 91.5 81.891Q823-588.217 823-525.098q0 92.548-65.228 156.823Q692.545-304 600-304h-75v152h235v91H210Zm150.872-334h238.451q54.26 0 92.969-38.141Q731-471.282 731-524.769q0-39.981-23.615-73.079Q683.77-630.946 648-646l-34.25-14.156L609-699q-7-49-44.183-82.5T480-815q-47.634 0-84.817 33.5Q358-748 351-699l-5.125 39.375L311-646q-35.77 15.95-58.885 48.426Q229-565.098 229-525.127 229-472 267.806-433.5q38.806 38.5 93.066 38.5ZM480-605Z"/></svg>