<svg width="46" height="46" viewBox="0 0 46 46" fill="none" xmlns="http://www.w3.org/2000/svg">
<path d="M34.1167 36.8L30.6667 21.0833L37.375 14.375C40.25 11.5 41.2083 7.66667 40.25 5.75C38.3333 4.79167 34.5 5.75 31.625 8.625L24.9167 15.3333L9.2 11.8833C8.24167 11.6917 7.475 12.075 7.09167 12.8417L6.51667 13.8C6.13333 14.7583 6.325 15.7167 7.09167 16.2917L17.25 23L13.4167 28.75H7.66667L5.75 30.6667L11.5 34.5L15.3333 40.25L17.25 38.3333V32.5833L23 28.75L29.7083 38.9083C30.2833 39.675 31.2417 39.8667 32.2 39.4833L33.1583 39.1C33.925 38.525 34.3083 37.7583 34.1167 36.8Z" stroke="white" stroke-width="5" stroke-linecap="round" stroke-linejoin="round"/>
</svg>
