<svg fill="#39A900" xmlns="http://www.w3.org/2000/svg" height="48" viewBox="0 -960 960 960" width="48"><path d="M430.026-251Q311-251 225-332.061 139-413.121 139-532v-250q0-33.4 22.925-56.7Q184.85-862 220-862h535q60.143 0 103.571 43.016Q902-775.968 902-715.591 902-650 860.071-599.5 818.143-549 755-549h-28v17q-4 120.118-90.974 200.559Q549.053-251 430.026-251ZM230-641h406v-129H230v129Zm199.62 298q82.38 0 142.88-54T636-532v-17H230v17q-1 81.49 58.478 135.245Q347.955-343 429.62-343ZM727-641h25.25q27.729 0 42.74-22.941Q810-686.882 810-716q0-23.118-15.833-38.559Q778.333-770 752-770h-25v129ZM139-99v-90h651v90H139Zm293-450Z"/></svg>
