<svg version="1.2" xmlns="http://www.w3.org/2000/svg" viewBox="0 0 960 960" width="960" height="960"><style>.a{fill:#39a900}</style><path fill-rule="evenodd" class="a" d="m201 739v32q0 22.1-15.8 37-15.1 14.3-37.5 15-21.1-0.7-36.1-15.8-15.6-15.9-15.6-38.2v-328.7l85-257.3q5.6-19.8 24.4-33.4 18.7-13.6 42.6-13.6h462q23.9 0 42.6 13.6 18.8 13.6 24.4 33.4l86 257.3v328.7q0 22.3-16.5 38.2-16 15.3-37 15.8-23-0.5-37.5-15-15-14.9-15-37v-32zm-53.3 84q0.9 0 1.9 0h-4q1 0 2.1 0zm661.8 0q0.8 0 1.6 0h-3q0.7 0 1.4 0zm-596.5-436h533l-52-158h-430zm-24 260h580v-201h-580zm61.4-62q-15.4-16-15.4-38.9 0-22.8 15.3-39 15.4-16.1 40.2-16.1 21.2 0 37.3 16.3 16.2 16.4 16.2 39.8 0 21.8-16 37.9-16 16-38.7 16-23.5 0-38.9-16zm381.3 0q-15.7-16-15.7-38.9 0-22.8 15.5-39 15.5-16.1 39.2-16.1 22.5 0 38.4 16.3 15.9 16.4 15.9 39.8 0 21.8-15.8 37.9-15.9 16-39.7 16-22.2 0-37.8-16zm-442.7-139v201z"/></svg>