<svg width="49" height="43" viewBox="0 0 49 43" fill="none" xmlns="http://www.w3.org/2000/svg">
<path d="M6.125 35.8337V21.5003C6.125 20.55 6.55521 19.6385 7.32098 18.9665C8.08675 18.2945 9.12537 17.917 10.2083 17.917H38.7917C39.8746 17.917 40.9132 18.2945 41.679 18.9665C42.4448 19.6385 42.875 20.55 42.875 21.5003V35.8337" stroke="white" stroke-width="5" stroke-linecap="round" stroke-linejoin="round"/>
<path d="M10.208 17.917V10.7503C10.208 9.79997 10.6382 8.88853 11.404 8.21653C12.1698 7.54452 13.2084 7.16699 14.2913 7.16699H34.708C35.791 7.16699 36.8296 7.54452 37.5954 8.21653C38.3611 8.88853 38.7913 9.79997 38.7913 10.7503V17.917" stroke="white" stroke-width="5" stroke-linecap="round" stroke-linejoin="round"/>
<path d="M6.125 32.25H42.875" stroke="white" stroke-width="5" stroke-linecap="round" stroke-linejoin="round"/>
</svg>
