<svg width="39" height="37" viewBox="0 0 39 37" fill="none" xmlns="http://www.w3.org/2000/svg">
<g clip-path="url(#clip0_874_1237)">
<path d="M26.0002 3.08301L22.2627 6.62884C21.3695 7.49339 20.8691 8.65574 20.8691 9.86634C20.8691 11.0769 21.3695 12.2393 22.2627 13.1038L25.1877 15.8788C26.099 16.7263 27.3242 17.2009 28.6002 17.2009C29.8762 17.2009 31.1014 16.7263 32.0127 15.8788L35.7502 12.333" stroke="white" stroke-width="5" stroke-linecap="round" stroke-linejoin="round"/>
<path d="M24.3754 23.1254L5.36295 5.08789C4.71438 5.69077 4.19913 6.41036 3.84738 7.20452C3.49563 7.99869 3.31445 8.85146 3.31445 9.71289C3.31445 10.5743 3.49563 11.4271 3.84738 12.2213C4.19913 13.0154 4.71438 13.735 5.36295 14.3379L17.2254 25.5921C18.3629 26.6712 20.4754 26.6712 21.7754 25.5921L24.3754 23.1254ZM24.3754 23.1254L35.7504 33.9171" stroke="white" stroke-width="5" stroke-linecap="round" stroke-linejoin="round"/>
<path d="M3.41211 33.608L13.8121 23.8955" stroke="white" stroke-width="5" stroke-linecap="round" stroke-linejoin="round"/>
<path d="M30.875 7.70801L19.5 18.4997" stroke="white" stroke-width="5" stroke-linecap="round" stroke-linejoin="round"/>
</g>
<defs>
<clipPath id="clip0_874_1237">
<rect width="39" height="37" fill="white"/>
</clipPath>
</defs>
</svg>
